<svg width="5" height="8" viewBox="0 0 5 8" fill="none" xmlns="http://www.w3.org/2000/svg">
<path fill-rule="evenodd" clip-rule="evenodd" d="M4.706 7.70814C4.5171 7.89494 4.2621 7.99974 3.9965 7.99974C3.7308 7.99974 3.4759 7.89494 3.287 7.70814L0.322001 4.76914C0.107001 4.55114 9.53674e-07 4.26914 9.53674e-07 3.99014C9.53674e-07 3.71114 0.107001 3.43414 0.322001 3.22114L3.277 0.29117C3.466 0.10461 3.7209 0 3.9865 0C4.252 0 4.5069 0.10461 4.696 0.29117C4.7891 0.383 4.8631 0.49244 4.9136 0.61313C4.9642 0.73382 4.9902 0.86334 4.9902 0.99417C4.9902 1.125 4.9642 1.25453 4.9136 1.37521C4.8631 1.4959 4.7891 1.60534 4.696 1.69717L2.379 3.99514L4.706 6.30214C4.7988 6.39424 4.8725 6.50374 4.9227 6.62434C4.973 6.74504 4.9989 6.87444 4.9989 7.00514C4.9989 7.13584 4.973 7.26534 4.9227 7.38594C4.8725 7.50664 4.7988 7.61614 4.706 7.70814Z" fill="#44546F"/>
</svg>
