<svg width="5" height="8" viewBox="0 0 5 8" fill="none" xmlns="http://www.w3.org/2000/svg">
<path fill-rule="evenodd" clip-rule="evenodd" d="M0.2929 7.70814C0.4818 7.89494 0.7368 7.99974 1.0024 7.99974C1.2681 7.99974 1.523 7.89494 1.7119 7.70814L4.6769 4.76914C4.8919 4.55114 4.9989 4.26914 4.9989 3.99014C4.9989 3.71114 4.8919 3.43414 4.6769 3.22114L1.7219 0.29117C1.5329 0.10461 1.278 0 1.0124 0C0.7469 0 0.492 0.10461 0.3029 0.29117C0.2098 0.383 0.1358 0.49244 0.0853004 0.61313C0.0347004 0.73382 0.00870037 0.86334 0.00870037 0.99417C0.00870037 1.125 0.0347004 1.25453 0.0853004 1.37521C0.1358 1.4959 0.2098 1.60534 0.3029 1.69717L2.6199 3.99514L0.2929 6.30214C0.2001 6.39424 0.1264 6.50374 0.0761995 6.62434C0.0258995 6.74504 0 6.87444 0 7.00514C0 7.13584 0.0258995 7.26534 0.0761995 7.38594C0.1264 7.50664 0.2001 7.61614 0.2929 7.70814Z" fill="#44546F"/>
</svg>
