<svg width="48" height="48" viewBox="0 0 48 48" fill="none" xmlns="http://www.w3.org/2000/svg">
<path d="M44 24C44 12.96 35.04 4 24 4C12.96 4 4 12.96 4 24C4 35.04 12.96 44 24 44" stroke="#F8F8FC" stroke-width="1.5" stroke-linecap="round" stroke-linejoin="round"/>
<path d="M15.9992 6H17.9992C14.0992 17.68 14.0992 30.32 17.9992 42H15.9992" stroke="#F8F8FC" stroke-width="1.5" stroke-linecap="round" stroke-linejoin="round"/>
<path d="M30 6C31.94 11.84 32.92 17.92 32.92 24" stroke="#F8F8FC" stroke-width="1.5" stroke-linecap="round" stroke-linejoin="round"/>
<path d="M6 32V30C11.84 31.94 17.92 32.92 24 32.92" stroke="#F8F8FC" stroke-width="1.5" stroke-linecap="round" stroke-linejoin="round"/>
<path d="M6 18C17.68 14.1 30.32 14.1 42 18" stroke="#F8F8FC" stroke-width="1.5" stroke-linecap="round" stroke-linejoin="round"/>
<path d="M38.4181 31.48L31.3381 38.5601C31.0581 38.8401 30.7981 39.36 30.7381 39.74L30.3581 42.44C30.2181 43.42 30.8981 44.1 31.8781 43.96L34.5781 43.58C34.9581 43.52 35.4981 43.26 35.7581 42.98L42.8381 35.9001C44.0581 34.6801 44.6381 33.26 42.8381 31.46C41.0581 29.68 39.6381 30.26 38.4181 31.48Z" stroke="#F8F8FC" stroke-width="1.5" stroke-miterlimit="10" stroke-linecap="round" stroke-linejoin="round"/>
<path d="M37.3984 32.5C37.9984 34.66 39.6784 36.3399 41.8384 36.9399" stroke="#F8F8FC" stroke-width="1.5" stroke-miterlimit="10" stroke-linecap="round" stroke-linejoin="round"/>
</svg>
