<svg width="40" height="40" viewBox="0 0 40 40" fill="none" xmlns="http://www.w3.org/2000/svg">
<path d="M29.3205 0C36.1205 0 40.0005 3.84 40.0005 10.66V29.34C40.0005 36.12 36.1405 40 29.3405 40H10.6605C3.84049 40 0.000488281 36.12 0.000488281 29.34V10.66C0.000488281 3.84 3.84049 0 10.6605 0H29.3205ZM19.9805 11.02C19.0605 11.02 18.3205 11.76 18.3205 12.68V18.32H12.6605C12.2205 18.32 11.8005 18.5 11.4805 18.8C11.1805 19.12 11.0005 19.538 11.0005 19.98C11.0005 20.9 11.7405 21.64 12.6605 21.66H18.3205V27.32C18.3205 28.24 19.0605 28.98 19.9805 28.98C20.9005 28.98 21.6405 28.24 21.6405 27.32V21.66H27.3205C28.2405 21.64 28.9805 20.9 28.9805 19.98C28.9805 19.06 28.2405 18.32 27.3205 18.32H21.6405V12.68C21.6405 11.76 20.9005 11.02 19.9805 11.02Z" fill="#17191D"/>
</svg>
