<svg width="14" height="14" viewBox="0 0 14 14" fill="none" xmlns="http://www.w3.org/2000/svg">
<path d="M4.22852 4.08268H9.77018V2.91602C9.77018 1.74935 9.33268 1.16602 8.02018 1.16602H5.97852C4.66602 1.16602 4.22852 1.74935 4.22852 2.91602V4.08268Z" stroke="#292D32" stroke-width="1.5" stroke-miterlimit="10" stroke-linecap="round" stroke-linejoin="round"/>
<path d="M9.33268 8.75V11.0833C9.33268 12.25 8.74935 12.8333 7.58268 12.8333H6.41602C5.24935 12.8333 4.66602 12.25 4.66602 11.0833V8.75H9.33268Z" stroke="#292D32" stroke-width="1.5" stroke-miterlimit="10" stroke-linecap="round" stroke-linejoin="round"/>
<path d="M12.25 5.83398V8.75065C12.25 9.91732 11.6667 10.5007 10.5 10.5007H9.33333V8.75065H4.66667V10.5007H3.5C2.33333 10.5007 1.75 9.91732 1.75 8.75065V5.83398C1.75 4.66732 2.33333 4.08398 3.5 4.08398H10.5C11.6667 4.08398 12.25 4.66732 12.25 5.83398Z" stroke="#292D32" stroke-width="1.5" stroke-miterlimit="10" stroke-linecap="round" stroke-linejoin="round"/>
<path d="M9.91732 8.75H9.21148H4.08398" stroke="#292D32" stroke-width="1.5" stroke-miterlimit="10" stroke-linecap="round" stroke-linejoin="round"/>
<path d="M4.08398 6.41602H5.83398" stroke="#292D32" stroke-width="1.5" stroke-miterlimit="10" stroke-linecap="round" stroke-linejoin="round"/>
</svg>
