<svg width="24" height="24" viewBox="0 0 24 24" fill="none" xmlns="http://www.w3.org/2000/svg">
<path d="M3.29807 21.4015L3.30037 21.3997L5.01 20.12C5.01005 20.12 5.01009 20.1199 5.01014 20.1199L5.01037 20.1197L5.31 20.52C5.71 20.22 6.27 20.26 6.63 20.62L3.29807 21.4015ZM3.29807 21.4015C2.97026 21.6498 2.5 21.4205 2.5 21V7V6C2.5 4.96024 2.73645 4.09671 3.25343 3.49804C3.75857 2.91309 4.60236 2.5 6 2.5H7H16.0026M3.29807 21.4015L16.0026 2.5M16.0026 2.5C15.6873 2.91841 15.5 3.43818 15.5 4V21C15.5 21.4052 15.0316 21.6455 14.6987 21.399C14.6985 21.3988 14.6983 21.3987 14.698 21.3985L12.992 20.1215C12.3997 19.6681 11.5601 19.7328 11.0364 20.2564L9.35645 21.9364C9.16181 22.1311 8.83863 22.1312 8.64386 21.9368C8.64376 21.9366 8.64365 21.9365 8.64355 21.9364L16.0026 2.5ZM6.75 14.25H11.25C11.9361 14.25 12.5 13.6861 12.5 13C12.5 12.3139 11.9361 11.75 11.25 11.75H6.75C6.06386 11.75 5.5 12.3139 5.5 13C5.5 13.6861 6.06386 14.25 6.75 14.25ZM6 10.25H12C12.6861 10.25 13.25 9.68614 13.25 9C13.25 8.31386 12.6861 7.75 12 7.75H6C5.31386 7.75 4.75 8.31386 4.75 9C4.75 9.68614 5.31386 10.25 6 10.25Z" fill="#E7E9F1" stroke="#E7E9F1"/>
<path d="M20.1172 3.87011L20.1173 3.87003L20.1096 3.86258C19.6767 3.43901 19.1169 3.14761 18.51 3.04291V2.53956C19.2709 2.65323 19.9499 3.00522 20.4764 3.52356C21.1083 4.16544 21.5 5.04039 21.5 6V8.42C21.5 9.10296 21.286 9.61187 20.9489 9.94895C20.6119 10.286 20.103 10.5 19.42 10.5H16.5V4.01C16.5 3.35138 16.9218 2.79115 17.51 2.58477V3.13303C17.2058 3.30742 17 3.63552 17 4.01V9.5V10H17.5H19.42C19.8596 10 20.2867 9.90137 20.5961 9.5898C20.9047 9.27893 21 8.85284 21 8.42V6C21 5.20505 20.6858 4.45057 20.1172 3.87011Z" fill="#E7E9F1" stroke="#E7E9F1"/>
</svg>
