<svg width="123" height="123" viewBox="0 0 123 123" fill="none" xmlns="http://www.w3.org/2000/svg">
<g clip-path="url(#clip0_12898_3542)">
<path d="M78 78L118 118" stroke="#94A3B8" stroke-width="10" stroke-linecap="round" stroke-linejoin="round"/>
<path fill-rule="evenodd" clip-rule="evenodd" d="M47 90C72.9574 90 94 69.8528 94 45C94 20.1472 72.9574 0 47 0C21.0426 0 0 20.1472 0 45C0 69.8528 21.0426 90 47 90ZM47 84C69.0914 84 87 66.763 87 45.5C87 24.237 69.0914 7 47 7C24.9086 7 7 24.237 7 45.5C7 66.763 24.9086 84 47 84Z" fill="#94A3B8"/>
</g>
<defs>
<clipPath id="clip0_12898_3542">
<rect width="123" height="123" fill="white"/>
</clipPath>
</defs>
</svg>
