<svg width="31" height="31" viewBox="0 0 31 31" fill="none" xmlns="http://www.w3.org/2000/svg">
<g clip-path="url(#clip0_4348_23147)">
<path d="M27 0H4C1.79086 0 0 1.79086 0 4V27C0 29.2091 1.79086 31 4 31H27C29.2091 31 31 29.2091 31 27V4C31 1.79086 29.2091 0 27 0Z" fill="#E61B17"/>
<path d="M4.62109 4.61133V17.6772H26.3747V4.61133H4.62109ZM22.2187 13.3262H8.85024V8.97313H22.2187V13.3262Z" fill="#FEFDFD"/>
<path d="M4.62109 22.0366H26.3747V24.7543C26.3744 25.1864 26.2117 25.6008 25.9222 25.907C25.6326 26.2132 25.2397 26.3864 24.8293 26.3887H4.62109V22.0366Z" fill="#FEFDFD"/>
</g>
<defs>
<clipPath id="clip0_4348_23147">
<rect width="31" height="31" fill="white"/>
</clipPath>
</defs>
</svg>
