<svg width="17" height="17" viewBox="0 0 17 17" fill="none" xmlns="http://www.w3.org/2000/svg">
<path d="M14.5 4.48665C12.28 4.26665 10.0467 4.15332 7.82 4.15332C6.5 4.15332 5.18 4.21999 3.86 4.35332L2.5 4.48665" stroke="#E90500" stroke-linecap="round" stroke-linejoin="round"/>
<path d="M6.16699 3.81301L6.31366 2.93967C6.42033 2.30634 6.50033 1.83301 7.62699 1.83301H9.37366C10.5003 1.83301 10.587 2.33301 10.687 2.94634L10.8337 3.81301" stroke="#E90500" stroke-linecap="round" stroke-linejoin="round"/>
<path d="M13.0669 6.59375L12.6336 13.3071C12.5603 14.3537 12.5003 15.1671 10.6403 15.1671H6.36026C4.50026 15.1671 4.44026 14.3537 4.36693 13.3071L3.93359 6.59375" stroke="#E90500" stroke-linecap="round" stroke-linejoin="round"/>
<path d="M7.38672 11.5H9.60672" stroke="#E90500" stroke-linecap="round" stroke-linejoin="round"/>
<path d="M6.83301 8.83301H10.1663" stroke="#E90500" stroke-linecap="round" stroke-linejoin="round"/>
</svg>
