<svg width="48" height="48" viewBox="0 0 48 48" fill="none" xmlns="http://www.w3.org/2000/svg">
<path d="M24 24C29.5228 24 34 19.5228 34 14C34 8.47715 29.5228 4 24 4C18.4772 4 14 8.47715 14 14C14 19.5228 18.4772 24 24 24Z" stroke="#F8F8FC" stroke-width="1.5" stroke-linecap="round" stroke-linejoin="round"/>
<path d="M38.4182 31.48L31.3381 38.5601C31.0581 38.8401 30.7981 39.36 30.7381 39.74L30.3581 42.44C30.2181 43.42 30.8981 44.1 31.8781 43.96L34.5781 43.58C34.9581 43.52 35.4981 43.26 35.7581 42.98L42.8381 35.9001C44.0581 34.6801 44.6381 33.26 42.8381 31.46C41.0581 29.68 39.6382 30.26 38.4182 31.48Z" stroke="#F8F8FC" stroke-width="1.5" stroke-miterlimit="10" stroke-linecap="round" stroke-linejoin="round"/>
<path d="M37.3984 32.5C37.9984 34.66 39.6784 36.3399 41.8384 36.9399" stroke="#F8F8FC" stroke-width="1.5" stroke-miterlimit="10" stroke-linecap="round" stroke-linejoin="round"/>
<path d="M6.82031 44C6.82031 36.26 14.5204 30 24.0004 30C26.0804 30 28.0803 30.3 29.9403 30.86" stroke="#F8F8FC" stroke-width="1.5" stroke-linecap="round" stroke-linejoin="round"/>
</svg>
