<svg width="20" height="20" viewBox="0 0 20 20" fill="none" xmlns="http://www.w3.org/2000/svg">
<path d="M18.3334 9.14199V10.8587C18.3334 11.317 17.9667 11.692 17.5 11.7087H15.8667C14.9667 11.7087 14.1417 11.0503 14.0667 10.1503C14.0167 9.62533 14.2167 9.13366 14.5667 8.79199C14.875 8.47533 15.3 8.29199 15.7667 8.29199H17.5C17.9667 8.30866 18.3334 8.68366 18.3334 9.14199Z" fill="#17191D"/>
<path d="M17.0584 12.9587H15.8667C14.2834 12.9587 12.9501 11.767 12.8167 10.2503C12.7417 9.38366 13.0584 8.51699 13.6917 7.90033C14.2251 7.35033 14.9667 7.04199 15.7667 7.04199H17.0584C17.3001 7.04199 17.5001 6.84199 17.4751 6.60033C17.2917 4.57533 15.9501 3.19199 13.9584 2.95866C13.7584 2.92533 13.5501 2.91699 13.3334 2.91699H5.83342C5.60008 2.91699 5.37508 2.93366 5.15841 2.96699C3.03341 3.23366 1.66675 4.81699 1.66675 7.08366V12.917C1.66675 15.217 3.53341 17.0837 5.83342 17.0837H13.3334C15.6667 17.0837 17.2751 15.6253 17.4751 13.4003C17.5001 13.1587 17.3001 12.9587 17.0584 12.9587ZM10.8334 8.12533H5.83342C5.49175 8.12533 5.20841 7.84199 5.20841 7.50033C5.20841 7.15866 5.49175 6.87533 5.83342 6.87533H10.8334C11.1751 6.87533 11.4584 7.15866 11.4584 7.50033C11.4584 7.84199 11.1751 8.12533 10.8334 8.12533Z" fill="#17191D"/>
</svg>
