<svg width="24" height="24" viewBox="0 0 24 24" fill="none" xmlns="http://www.w3.org/2000/svg">
<path d="M20 20H4.75C4.336 20 4 20.336 4 20.75C4 21.164 4.336 21.5 4.75 21.5H20.5C21.03 21.5 21.5 21.03 21.5 20.5V4.75C21.5 4.336 21.164 4 20.75 4C20.336 4 20 4.336 20 4.75V20ZM19 3C19 2.522 18.621 2 18 2H3C2.38 2 2 2.519 2 3V18C2 18.621 2.52 19 3 19H18C18.478 19 19 18.621 19 18V3ZM9.75 9.75V6.75C9.75 6.336 10.086 6 10.5 6C10.914 6 11.25 6.336 11.25 6.75V9.75H14.25C14.664 9.75 15 10.086 15 10.5C15 10.914 14.664 11.25 14.25 11.25H11.25V14.25C11.25 14.664 10.914 15 10.5 15C10.086 15 9.75 14.664 9.75 14.25V11.25H6.75C6.336 11.25 6 10.914 6 10.5C6 10.086 6.336 9.75 6.75 9.75H9.75Z" fill="white"/>
</svg>
