<svg width="25" height="24" viewBox="0 0 25 24" fill="none" xmlns="http://www.w3.org/2000/svg">
<path d="M12 12C14.7614 12 17 9.76142 17 7C17 4.23858 14.7614 2 12 2C9.23858 2 7 4.23858 7 7C7 9.76142 9.23858 12 12 12Z" stroke="white" stroke-width="1.5" stroke-linecap="round" stroke-linejoin="round"/>
<path d="M20.5901 22C20.5901 18.13 16.7402 15 12.0002 15C7.26015 15 3.41016 18.13 3.41016 22" stroke="white" stroke-width="1.5" stroke-linecap="round" stroke-linejoin="round"/>
<path d="M22.5758 15.1683L20.5078 13.9723C20.1118 13.7443 19.4918 13.7443 19.0958 13.9723L17.0078 15.1763C16.1798 15.7363 16.1318 15.8203 16.1318 16.7123V18.8843C16.1318 19.7763 16.1798 19.8643 17.0238 20.4323L19.0918 21.6283C19.2918 21.7443 19.5478 21.8003 19.7998 21.8003C20.0518 21.8003 20.3078 21.7443 20.5038 21.6283L22.5918 20.4243C23.4198 19.8643 23.4678 19.7803 23.4678 18.8883V16.7123C23.4678 15.8203 23.4198 15.7363 22.5758 15.1683ZM19.7998 19.1003C19.0838 19.1003 18.4998 18.5163 18.4998 17.8003C18.4998 17.0843 19.0838 16.5003 19.7998 16.5003C20.5158 16.5003 21.0998 17.0843 21.0998 17.8003C21.0998 18.5163 20.5158 19.1003 19.7998 19.1003Z" fill="#D9D9D9"/>
<path d="M22.0204 15.6942L20.366 14.7374C20.0492 14.555 19.5532 14.555 19.2364 14.7374L17.566 15.7006C16.9036 16.1486 16.8652 16.2158 16.8652 16.9294V18.667C16.8652 19.3806 16.9036 19.451 17.5788 19.9054L19.2332 20.8622C19.3932 20.955 19.598 20.9998 19.7996 20.9998C20.0012 20.9998 20.206 20.955 20.3628 20.8622L22.0332 19.899C22.6956 19.451 22.734 19.3838 22.734 18.6702V16.9294C22.734 16.2158 22.6956 16.1486 22.0204 15.6942ZM19.7996 18.8398C19.2268 18.8398 18.7596 18.3726 18.7596 17.7998C18.7596 17.227 19.2268 16.7598 19.7996 16.7598C20.3724 16.7598 20.8396 17.227 20.8396 17.7998C20.8396 18.3726 20.3724 18.8398 19.7996 18.8398Z" fill="white"/>
</svg>
