<svg width="24" height="24" viewBox="0 0 24 24" fill="none" xmlns="http://www.w3.org/2000/svg">
<path d="M12 12C14.7614 12 17 9.76142 17 7C17 4.23858 14.7614 2 12 2C9.23858 2 7 4.23858 7 7C7 9.76142 9.23858 12 12 12Z" fill="white"/>
<path d="M12.0002 14.5C6.99016 14.5 2.91016 17.86 2.91016 22C2.91016 22.28 3.13016 22.5 3.41016 22.5H20.5902C20.8702 22.5 21.0902 22.28 21.0902 22C21.0902 17.86 17.0102 14.5 12.0002 14.5Z" fill="white"/>
<path d="M21.9743 14.6482L19.9063 13.4523C19.5103 13.2243 18.8903 13.2243 18.4943 13.4523L16.4063 14.6562C15.5783 15.2163 15.5303 15.3002 15.5303 16.1923V18.3642C15.5303 19.2562 15.5783 19.3442 16.4223 19.9123L18.4903 21.1082C18.6903 21.2242 18.9463 21.2803 19.1983 21.2803C19.4503 21.2803 19.7063 21.2242 19.9023 21.1082L21.9903 19.9042C22.8183 19.3442 22.8663 19.2603 22.8663 18.3682V16.1923C22.8663 15.3002 22.8183 15.2163 21.9743 14.6482ZM19.1983 18.5802C18.4823 18.5802 17.8983 17.9962 17.8983 17.2802C17.8983 16.5642 18.4823 15.9803 19.1983 15.9803C19.9143 15.9803 20.4983 16.5642 20.4983 17.2802C20.4983 17.9962 19.9143 18.5802 19.1983 18.5802Z" fill="#D9D9D9"/>
<path d="M21.4189 15.1742L19.7645 14.2174C19.4477 14.035 18.9517 14.035 18.6349 14.2174L16.9645 15.1806C16.3021 15.6286 16.2637 15.6958 16.2637 16.4094V18.147C16.2637 18.8606 16.3021 18.931 16.9773 19.3854L18.6317 20.3422C18.7917 20.435 18.9965 20.4798 19.1981 20.4798C19.3997 20.4798 19.6045 20.435 19.7613 20.3422L21.4317 19.379C22.0941 18.931 22.1325 18.8638 22.1325 18.1502V16.4094C22.1325 15.6958 22.0941 15.6286 21.4189 15.1742ZM19.1981 18.3198C18.6253 18.3198 18.1581 17.8526 18.1581 17.2798C18.1581 16.707 18.6253 16.2398 19.1981 16.2398C19.7709 16.2398 20.2381 16.707 20.2381 17.2798C20.2381 17.8526 19.7709 18.3198 19.1981 18.3198Z" fill="white"/>
</svg>
