<svg width="21" height="20" viewBox="0 0 21 20" fill="none" xmlns="http://www.w3.org/2000/svg">
<path d="M16.6954 3.36215C16.8056 3.53542 16.6168 3.73726 16.4165 3.69175C16.0249 3.57508 15.5915 3.51675 15.1499 3.51675H12.4412C12.284 3.51675 12.136 3.4428 12.0415 3.31712L11.1082 2.07508C10.9908 1.90878 11.1018 1.66675 11.3053 1.66675H13.5999C14.9007 1.66675 16.0466 2.34236 16.6954 3.36215Z" fill="#747C91"/>
<path d="M17.2832 5.45008C16.9248 5.19175 16.5165 5.00008 16.0748 4.89175C15.7748 4.80841 15.4665 4.76675 15.1498 4.76675H12.0498C11.5665 4.76675 11.5332 4.72508 11.2748 4.38341L10.1082 2.83341C9.5665 2.10841 9.1415 1.66675 7.78317 1.66675H5.84984C3.8165 1.66675 2.1665 3.31675 2.1665 5.35008V14.6501C2.1665 16.6834 3.8165 18.3334 5.84984 18.3334H15.1498C17.1832 18.3334 18.8332 16.6834 18.8332 14.6501V8.45008C18.8332 7.20842 18.2248 6.11675 17.2832 5.45008ZM12.4915 13.6167H8.49984C8.17484 13.6167 7.92484 13.3584 7.92484 13.0334C7.92484 12.7167 8.17484 12.4501 8.49984 12.4501H12.4915C12.8165 12.4501 13.0748 12.7167 13.0748 13.0334C13.0748 13.3584 12.8165 13.6167 12.4915 13.6167Z" fill="#747C91"/>
</svg>
