<svg width="16" height="17" viewBox="0 0 16 17" fill="none" xmlns="http://www.w3.org/2000/svg">
<path d="M6.06065 6.49992C6.21739 6.05436 6.52675 5.67866 6.93395 5.43934C7.34116 5.20002 7.81991 5.11254 8.28544 5.19239C8.75096 5.27224 9.1732 5.51427 9.47737 5.8756C9.78154 6.23694 9.94802 6.69427 9.94732 7.16659C9.94732 8.49992 7.94732 9.16659 7.94732 9.16659M8.00065 11.8333H8.00732M14.6673 8.49992C14.6673 12.1818 11.6826 15.1666 8.00065 15.1666C4.31875 15.1666 1.33398 12.1818 1.33398 8.49992C1.33398 4.81802 4.31875 1.83325 8.00065 1.83325C11.6826 1.83325 14.6673 4.81802 14.6673 8.49992Z" stroke="#98A2B3" stroke-width="1.33333" stroke-linecap="round" stroke-linejoin="round"/>
</svg>
