<svg width="16" height="17" viewBox="0 0 16 17" fill="none" xmlns="http://www.w3.org/2000/svg">
<path d="M6.05967 6.50065C6.21641 6.0551 6.52578 5.67939 6.93298 5.44007C7.34018 5.20076 7.81894 5.11328 8.28446 5.19313C8.74998 5.27297 9.17222 5.515 9.47639 5.87634C9.78057 6.23767 9.94705 6.695 9.94634 7.16732C9.94634 8.50065 7.94634 9.16732 7.94634 9.16732M7.99967 11.834H8.00634M14.6663 8.50065C14.6663 12.1826 11.6816 15.1673 7.99967 15.1673C4.31778 15.1673 1.33301 12.1826 1.33301 8.50065C1.33301 4.81875 4.31778 1.83398 7.99967 1.83398C11.6816 1.83398 14.6663 4.81875 14.6663 8.50065Z" stroke="#E2EEFF" stroke-width="1.33333" stroke-linecap="round" stroke-linejoin="round"/>
</svg>
