<svg width="19" height="15" viewBox="0 0 19 15" fill="none" xmlns="http://www.w3.org/2000/svg">
<g clip-path="url(#clip0_201_2)">
<path d="M1.5 0H17.5C18.3284 0 19 0.671573 19 1.5C19 2.32843 18.3284 3 17.5 3H1.5C0.671574 3 0 2.32843 0 1.5C0 0.671573 0.671574 0 1.5 0Z" fill="#6F7691"/>
<path d="M1.5 6H17.5C18.3284 6 19 6.67157 19 7.5C19 8.32843 18.3284 9 17.5 9H1.5C0.671574 9 0 8.32843 0 7.5C0 6.67157 0.671574 6 1.5 6Z" fill="#6F7690"/>
<path d="M6.5 12H17.5C18.3284 12 19 12.6716 19 13.5C19 14.3284 18.3284 15 17.5 15H6.5C5.67157 15 5 14.3284 5 13.5C5 12.6716 5.67157 12 6.5 12Z" fill="#99A2AF"/>
</g>
<defs>
<clipPath id="clip0_201_2">
<rect width="19" height="15" fill="white" transform="matrix(-1 0 0 1 19 0)"/>
</clipPath>
</defs>
</svg>
